#!OML:ASF E:\CV Data\Top Level 1\Subject 1\Session 1\player.ASF
:FULLY-SPECIFIED
:DEGREES
1242
root -3.3207 17.2679 2.47624 3.54777 -7.65787 -5.15817
lowerback 7.80884 -0.664937 0.886668
upperback -0.72956 -0.509533 5.98096
thorax -5.11106 -0.194485 5.84811
lowerneck -19.8095 -8.14404 -11.086
upperneck 18.9325 -11.0146 12.5586
head 10.7237 -4.48801 4.60244
rclavicle -2.68359e-014 2.8625e-014
rhumerus 306.79 331.848 671.435
rradius 15.3047
rwrist 6.12697
rhand -16.9925 -1.27462
rfingers 7.12502
rthumb 9.24261 -31.052
lclavicle -2.68359e-014 2.8625e-014
lhumerus -34.1514 0.367458 87.3224
lradius 40.2568
lwrist -9.89776
lhand -9.46281 3.93367
lfingers 7.12502
lthumb 16.5009 33.252
rfemur -16.2992 5.8377 25.1243
rtibia 39.4003
rfoot -24.1648 -11.693
rtoes 2.51218
lfemur -14.7558 3.3523 -15.388
ltibia 37.5464
lfoot -20.9626 2.76566
ltoes 0.526178
1243
root -3.32211 17.2738 2.47314 3.62047 -7.56621 -5.07798
lowerback 7.71657 -0.754077 0.721208
upperback -0.847207 -0.643416 5.95358
thorax -5.16822 -0.254461 5.93054
lowerneck -19.7942 -8.09878 -11.0279
upperneck 19.2997 -10.9844 12.4385
head 10.8381 -4.47831 4.56165
rclavicle 4.87022e-015 1.98785e-014
rhumerus 306.589 332.214 671.561
rradius 15.4255
rwrist 5.85307
rhand -17.2352 -0.892155
rfingers 7.12502
rthumb 9.00838 -30.6798
lclavicle 4.87022e-015 1.98785e-014
lhumerus -34.1788 0.477306 87.0714
lradius 39.793
lwrist -10.1317
lhand -9.20811 4.04611
lfingers 7.12502
lthumb 16.7461 33.3439
rfemur -16.3917 5.84707 25.0461
rtibia 39.3854
rfoot -24.1383 -11.7923
rtoes 2.63942
lfemur -14.7293 3.17584 -15.4679
ltibia 37.2943
lfoot -20.9036 2.69168
ltoes 0.703256
1244
root -3.32336 17.2804 2.4699 3.69419 -7.48086 -4.98049
lowerback 7.61936 -0.841602 0.552363
upperback -0.964829 -0.776505 5.90814
thorax -5.22211 -0.314051 5.99509
lowerneck -19.7672 -8.05693 -10.9808
upperneck 19.6519 -10.9571 12.3277
head 10.9472 -4.47057 4.52561
rclavicle -4.47266e-015 -4.13472e-014
rhumerus 306.399 332.432 671.743
rradius 15.5258
rwrist 5.64243
rhand -17.6058 -0.556232
rfingers 7.12502
rthumb 8.65072 -30.359
lclavicle -4.47266e-015 -4.13472e-014
lhumerus -34.1973 0.630902 86.7901
lradius 39.2947
lwrist -10.3296
lhand -9.00796 4.16332
lfingers 7.12502
lthumb 16.9388 33.4447
rfemur -16.4874 5.87025 24.9487
rtibia 39.3702
rfoot -24.1124 -11.9006
rtoes 2.7897
lfemur -14.7347 3.05379 -15.5558
ltibia 37.0783
lfoot -20.8328 2.5469
ltoes 0.873291
1245
root -3.32434 17.287 2.46638 3.76343 -7.41152 -4.87346
lowerback 7.53216 -0.927839 0.384599
upperback -1.08527 -0.907745 5.85171
thorax -5.28444 -0.372552 6.04727
lowerneck -19.7458 -8.01362 -10.9438
upperneck 19.9895 -10.9216 12.2164
head 11.0521 -4.46016 4.49206
rclavicle -3.97569e-015 3.33958e-014
rhumerus 306.228 332.524 671.976
rradius 15.6045
rwrist 5.4775
rhand -18.0785 -0.27358
rfingers 7.12502
rthumb 8.19455 -30.0947
lclavicle -3.97569e-015 3.33958e-014
lhumerus -34.2154 0.844702 86.4804
lradius 38.7591
lwrist -10.4913
lhand -8.85964 4.29704
lfingers 7.12502
lthumb 17.0815 33.5661
rfemur -16.5813 5.91348 24.8411
rtibia 39.3575
rfoot -24.0878 -12.0168
rtoes 2.95985
lfemur -14.7564 2.98417 -15.646
ltibia 36.89
lfoot -20.7594 2.35369
ltoes 1.03731
1246
root -3.32486 17.2934 2.46274 3.83122 -7.368 -4.76452
lowerback 7.44281 -1.00448 0.232002
upperback -1.20013 -1.02593 5.77794
thorax -5.341 -0.425281 6.07015
lowerneck -19.7242 -7.97545 -10.9096
upperneck 20.3064 -10.8918 12.1135
head 11.1514 -4.45216 4.46059
rclavicle -1.10325e-014 -2.94201e-014
rhumerus 306.075 332.486 672.238
rradius 15.6702
rwrist 5.3284
rhand -18.6304 -0.0421561
rfingers 7.12502
rthumb 7.66186 -29.8834
lclavicle -1.10325e-014 -2.94201e-014
lhumerus -34.2116 1.08769 86.138
lradius 38.1823
lwrist -10.6055
lhand -8.77395 4.43804
lfingers 7.12502
lthumb 17.164 33.6999
rfemur -16.6768 5.97737 24.7294
rtibia 39.3483
rfoot -24.0653 -12.1301
rtoes 3.15086
lfemur -14.7857 2.96105 -15.7343
ltibia 36.7205
lfoot -20.6941 2.13446
ltoes 1.18338
1247
root -3.32462 17.2991 2.45917 3.89855 -7.35995 -4.66602
lowerback 7.35026 -1.06886 0.107253
upperback -1.3098 -1.12602 5.69259
thorax -5.39255 -0.470104 6.06203
lowerneck -19.6995 -7.94311 -10.8835
upperneck 20.6009 -10.8662 12.0147
head 11.2437 -4.4468 4.43085
rclavicle -7.05686e-015 2.38542e-014
rhumerus 305.938 332.322 672.536
rradius 15.7163
rwrist 5.20796
rhand -19.2351 0.148995
rfingers 7.12502
rthumb 7.07819 -29.7126
lclavicle -7.05686e-015 2.38542e-014
lhumerus -34.1843 1.36048 85.7685
lradius 37.5599
lwrist -10.6784
lhand -8.74055 4.60749
lfingers 7.12502
lthumb 17.1962 33.8666
rfemur -16.772 6.06326 24.625
rtibia 39.3409
rfoot -24.0431 -12.2328
rtoes 3.34667
lfemur -14.8124 2.96924 -15.8127
ltibia 36.5649
lfoot -20.6427 1.92291
ltoes 1.30815
